<svg id="02528e43-2c50-45ed-a772-19a1d487975b" data-name="Livello 1" xmlns="http://www.w3.org/2000/svg"
     xmlns:xlink="http://www.w3.org/1999/xlink" viewBox="0 0 259.78 158.85">
    <g style="clip-path:url(#b377ab41-5f58-44f8-9f17-a10959b57d0c)">
        <path fill="#ffffff" d="M0,42.67 h13.98 v116.18 h-13.98z"/>
        <path d="M99.23,150a25.1,25.1,0,1,0-25.1,25.11A25.1,25.1,0,0,0,99.23,150m-25.1-36.21A36.21,36.21,0,1,1,37.91,150a36.21,36.21,0,0,1,36.22-36.21"
              transform="translate(-19.98 -70.57)" style="fill:#ffffff"/>
        <path d="M109.73,150a35.61,35.61,0,1,1-35.6-35.6A35.6,35.6,0,0,1,109.73,150ZM98.8,150a24.68,24.68,0,1,1-24.68-24.68A24.68,24.68,0,0,1,98.8,150Z"
              transform="translate(-19.98 -70.57)"
              style="fill:none;stroke:#ffffff;stroke-miterlimit:10;stroke-width:1.17499995231628px"/>
        <path d="M174.88,150a25.1,25.1,0,1,0-25.1,25.11A25.1,25.1,0,0,0,174.88,150m-25.1-36.21A36.21,36.21,0,1,1,113.57,150a36.21,36.21,0,0,1,36.22-36.21"
              transform="translate(-19.98 -70.57)" style="fill:#ffffff"/>
        <path d="M185.39,150a35.61,35.61,0,1,1-35.6-35.6A35.6,35.6,0,0,1,185.39,150Zm-10.92,0a24.68,24.68,0,1,1-24.68-24.68A24.68,24.68,0,0,1,174.46,150Z"
              transform="translate(-19.98 -70.57)"
              style="fill:none;stroke:#ffffff;stroke-miterlimit:10;stroke-width:1.17499995231628px"/>
        <path d="M250.54,150a25.1,25.1,0,1,0-25.1,25.11A25.1,25.1,0,0,0,250.54,150m-25.1-36.21A36.21,36.21,0,1,1,189.23,150a36.21,36.21,0,0,1,36.22-36.21"
              transform="translate(-19.98 -70.57)" style="fill:#ffffff"/>
        <path d="M261,150a35.61,35.61,0,1,1-35.6-35.6A35.6,35.6,0,0,1,261,150Zm-10.92,0a24.68,24.68,0,1,1-24.68-24.68A24.68,24.68,0,0,1,250.12,150Z"
              transform="translate(-19.98 -70.57)"
              style="fill:none;stroke:#ffffff;stroke-miterlimit:10;stroke-width:1.17499995231628px"/>
        <path fill="#ffffff" d="M245.8,0 h13.98 v116.18 h-13.98z"/>
    </g>
</svg>