<?xml version="1.0" standalone="no"?>
<!DOCTYPE svg PUBLIC "-//W3C//DTD SVG 20010904//EN"
 "http://www.w3.org/TR/2001/REC-SVG-20010904/DTD/svg10.dtd">
<svg version="1.0" xmlns="http://www.w3.org/2000/svg"
 width="710.000000pt" height="710.000000pt" viewBox="0 0 710.000000 710.000000"
 preserveAspectRatio="xMidYMid meet">
<metadata>
Created by potrace 1.11, written by Peter Selinger 2001-2013
</metadata>
<g transform="translate(0.000000,710.000000) scale(0.100000,-0.100000)"
fill="#000000" stroke="none">
<path d="M6719 5708 c-1 -17 -1 -3128 0 -3149 1 -13 25 -16 191 -16 l190 0 0
1588 0 1589 -190 0 c-145 0 -190 -3 -191 -12z"/>
<path d="M4 4551 c-2 -2 -4 -717 -4 -1588 l0 -1583 191 2 192 3 -1 1560 c0
858 -1 1571 -1 1585 l-1 25 -186 0 c-102 0 -187 -2 -190 -4z"/>
<path d="M1315 4536 c-77 -15 -181 -44 -205 -57 -8 -5 -37 -18 -65 -30 -165
-72 -341 -239 -444 -422 -24 -44 -82 -177 -76 -177 2 0 -2 -18 -10 -41 -21
-59 -29 -129 -29 -259 -1 -167 16 -256 75 -393 51 -121 117 -216 219 -317 147
-145 324 -239 517 -274 112 -20 326 -14 425 12 306 82 557 296 677 577 54 129
74 226 75 375 1 147 -4 188 -34 298 -32 114 -106 257 -180 347 -35 43 -172
175 -181 175 -4 0 -14 6 -21 13 -31 30 -159 99 -233 125 -155 55 -369 75 -510
48z m275 -320 c229 -37 435 -206 519 -425 124 -322 -17 -688 -324 -843 -109
-55 -190 -74 -320 -72 -175 2 -330 69 -460 199 -133 132 -198 288 -198 475 -1
329 236 609 563 665 19 3 35 7 37 9 5 4 139 -1 183 -8z"/>
<path d="M3448 4545 c-2 -2 -25 -5 -53 -9 -77 -9 -189 -43 -271 -82 -290 -138
-485 -388 -560 -719 -14 -61 -13 -299 1 -372 80 -407 394 -720 801 -797 107
-20 279 -18 384 4 205 44 368 134 516 286 193 198 286 442 278 729 -15 537
-461 966 -1001 963 -51 -1 -94 -2 -95 -3z m209 -329 c216 -35 411 -185 508
-391 18 -40 28 -72 46 -155 11 -49 14 -197 5 -227 -3 -10 -8 -33 -11 -51 -14
-81 -84 -215 -155 -296 -18 -20 -58 -57 -89 -80 -320 -244 -775 -162 -986 179
-68 109 -95 199 -100 336 -8 185 59 353 195 490 104 104 236 174 370 195 19 3
36 7 37 7 4 5 143 -1 180 -7z"/>
<path d="M5487 4544 c-2 -2 -24 -7 -48 -10 -24 -3 -84 -19 -134 -36 -459 -153
-741 -599 -681 -1078 26 -210 129 -420 281 -572 149 -151 321 -240 550 -286
97 -20 329 -8 420 21 6 2 30 9 55 16 25 7 80 30 123 51 337 167 553 501 561
870 2 89 -6 172 -28 275 -27 129 -137 330 -238 435 -144 150 -324 253 -518
297 -57 13 -333 27 -343 17z m239 -329 c27 -5 51 -9 54 -10 3 -1 19 -5 35 -10
82 -22 189 -87 271 -165 275 -262 273 -699 -4 -968 -78 -75 -210 -150 -297
-168 -96 -19 -130 -22 -195 -19 -308 14 -569 233 -636 536 -3 13 -8 60 -11
105 -15 215 89 437 269 572 142 108 337 156 514 127z"/>
</g>
</svg>
